{"title":"IT'S ENTERTAINMENT {2014} - New DVDScr - x264 - 1CDRip - AC-3 -","uid":10733206,"size":742747252,"categoryP":"video","categoryS":"movies","magnet":"?xt=urn:btih:f0c9741ff7da9d08cadfc812d82e2fbaa19d8a17&amp;dn=IT%27S+ENTERTAINMENT+%7B2014%7D+-+New+DVDScr+-+x264+-+1CDRip+-+AC-3+-+&amp;tr=udp%3A%2F%2Ftracker.openbittorrent.com%3A80&amp;tr=udp%3A%2F%2Fopen.demonii.com%3A1337&amp;tr=udp%3A%2F%2Ftracker.coppersurfer.tk%3A6969&amp;tr=udp%3A%2F%2Fexodus.desync.com%3A6969","seeders":3,"leechers":0,"uploader":"inovai","files":18,"time":1407654638,"description":"Cover: &lt;a href=&quot;\nhttp://forum.primetimeshow.in/viewtopic.php?f=7&amp;t=569&quot; rel=&quot;nofollow&quot; target=&quot;_NEW&quot;&gt;\nhttp://forum.primetimeshow.in/viewtopic.php?f=7&amp;t=569&lt;/a&gt;\n\nGeneral\nUnique ID : 76363338174524880834516306939705348055 (0x39730B413FB57E3B6886E6E36DFCCFD7)\n\n\n\nComplete name : IT'S ENTERTAINMENT {2014} - New DVDScr - x264 - 1CDRip - AC-3 - Cool_Candy.mkv\nFormat : Matroska\nFormat version : Version 4 / Version 2\nFile size : 705 MiB\nDuration : 2h 18mn\nOverall bit rate : 712 Kbps\nWriting application : Lavf55.19.104\nWriting library : Lavf55.19.104\n\n\n\n\nVideo\nID : 1\nFormat : AVC\nFormat/Info : Advanced Video Codec\nFormat profile : &lt;a class=&quot;__cf_email__&quot; href=&quot;/cdn-cgi/l/email-protection&quot; data-cfemail=&quot;03416270666f6a6d66434f322d30&quot;&gt;[email&amp;#160;protected]&lt;/a&gt;&lt;script cf-hash='f9e31' type=&quot;text/javascript&quot;&gt;\n/* &lt;![CDATA[ */!function(){try{var t=&quot;currentScript&quot;in document?document.currentScript:function(){for(var t=document.getElementsByTagName(&quot;script&quot;),e=t.length;e--;)if(t[e].getAttribute(&quot;cf-hash&quot;))return t[e]}();if(t&amp;&amp;t.previousSibling){var e,r,n,i,c=t.previousSibling,a=c.getAttribute(&quot;data-cfemail&quot;);if(a){for(e=&quot;&quot;,r=parseInt(a.substr(0,2),16),n=2;a.length-n;n+=2)i=parseInt(a.substr(n,2),16)^r,e+=String.fromCharCode(i);e=document.createTextNode(e),c.parentNode.replaceChild(e,c)}}}catch(u){}}();/* ]]&gt; */&lt;/script&gt;\nFormat settings, CABAC : No\nFormat settings, ReFrames : 2 frames\nCodec ID : V_MPEG4/ISO/AVC\nDuration : 2h 18mn\nBit rate : 512 Kbps\nWidth : 640 pixels\nHeight : 256 pixels\nDisplay aspect ratio : 2.500\nFrame rate mode : Constant\nFrame rate : 24.000 fps\nColor space : YUV\nChroma subsampling : 4:2:0\nBit depth : 8 bits\nScan type : Progressive\nBits/(Pixel*Frame) : 0.130\nStream size : 501 MiB (71%)\nWriting library : x264 core 140 r2377 1ca7bb9\nEncoding settings : Cool_Candy\nDefault : Yes\nForced : No\n\n\n\nAudio\nID : 2\nFormat : AC-3\nFormat/Info : Audio Coding 3\nMode extension : CM (complete main)\nFormat settings, Endianness : Big\nCodec ID : A_AC3\nDuration : 2h 18mn\nBit rate mode : Constant\nBit rate : 192 Kbps\nChannel(s) : 2 channels\nChannel positions : Front: L R\nSampling rate : 48.0 KHz\nBit depth : 16 bits\nCompression mode : Lossy\nDelay relative to video : -47ms\nStream size : 190 MiB (27%)\nDefault : Yes\nForced : No\n\nThanks to cool_candy!\n\nSeed please after download!\n","torrent":{"xt":"urn:btih:f0c9741ff7da9d08cadfc812d82e2fbaa19d8a17","amp;dn":"IT%27S+ENTERTAINMENT+%7B2014%7D+-+New+DVDScr+-+x264+-+1CDRip+-+AC-3+-+","amp;tr":["udp%3A%2F%2Ftracker.openbittorrent.com%3A80","udp%3A%2F%2Fopen.demonii.com%3A1337","udp%3A%2F%2Ftracker.coppersurfer.tk%3A6969","udp%3A%2F%2Fexodus.desync.com%3A6969"],"infoHash":"f0c9741ff7da9d08cadfc812d82e2fbaa19d8a17","infoHashBuffer":{"type":"Buffer","data":[240,201,116,31,247,218,157,8,202,223,200,18,216,46,47,186,161,157,138,23]},"announce":[],"urlList":[]}}